<svg version="1.1" id="Layer_1" xmlns="http://www.w3.org/2000/svg" xmlns:xlink="http://www.w3.org/1999/xlink" x="0px" y="0px"
	 width="100%" viewBox="0 0 1060 235" enable-background="new 0 0 1060 235" xml:space="preserve">
<path fill="#000000" opacity="1.000000" stroke="none" 
	d="
M1.000000,183.000000 
	C1.000000,122.343384 1.000000,61.686771 1.000000,1.015079 
	C354.264740,1.015079 707.529480,1.015079 1060.897095,1.015079 
	C1060.897095,79.251633 1060.897095,157.503448 1060.897095,235.877625 
	C707.666687,235.877625 354.333344,235.877625 1.000000,235.877625 
	C1.000000,225.255402 1.000000,214.590332 1.285013,203.202698 
	C3.022669,195.938705 4.778757,189.388367 1.000000,183.000000 
M1001.046021,157.737106 
	C1001.146118,158.178574 1001.246216,158.620026 1001.165405,159.836823 
	C1002.798401,163.374741 1003.804504,167.420410 1006.181885,170.355286 
	C1013.279236,179.116791 1027.691406,179.928772 1038.913818,174.586121 
	C1041.859009,173.184006 1042.692139,171.627090 1041.174194,168.447113 
	C1039.615845,165.182953 1038.784058,161.572067 1037.425415,157.484314 
	C1035.821777,158.213837 1034.425049,158.809769 1033.062500,159.475784 
	C1026.293945,162.784393 1020.041382,160.093948 1020.006042,155.110031 
	C1019.926147,143.839691 1019.980896,132.568420 1019.980896,120.875519 
	C1026.858398,120.875519 1033.271729,120.875519 1039.678223,120.875519 
	C1039.678223,115.710396 1039.678223,110.979240 1039.678223,105.840790 
	C1032.993896,105.840790 1026.585205,105.840790 1019.810242,105.840790 
	C1019.810242,100.341270 1019.810242,95.252815 1019.810242,90.004486 
	C1017.947754,90.004486 1016.462280,89.954979 1014.980896,90.012238 
	C1002.039124,90.512527 1000.527588,91.843407 1000.037964,103.246483 
	C1000.000305,104.125229 1000.328369,105.019691 1000.488281,105.916725 
	C988.725098,106.247223 988.840271,106.246246 988.928345,116.637474 
	C988.955566,119.841736 989.885864,121.128250 993.205994,121.066994 
	C995.804382,121.019051 998.416321,121.709663 1000.182556,122.341011 
	C1000.122803,133.257477 1000.046021,144.173950 1000.045471,155.090424 
	C1000.045410,155.745575 1000.654114,156.400757 1001.046021,157.737106 
M428.019928,89.954994 
	C428.065552,98.287575 428.111176,106.620148 428.011047,115.885971 
	C428.058502,124.261932 428.105957,132.637894 427.852173,141.629288 
	C415.733673,122.174019 403.615173,102.718758 391.512329,83.288666 
	C384.216583,83.288666 376.806427,83.288666 369.388794,83.288666 
	C369.388794,114.611877 369.388794,145.639008 369.388794,176.842957 
	C375.382721,176.842957 381.171509,176.842957 387.787140,176.759842 
	C388.193054,175.764984 388.962250,174.766098 388.951233,173.775848 
	C388.730103,153.863174 388.419159,133.951508 388.800751,114.228226 
	C392.909210,120.634422 397.107147,126.985321 401.107666,133.458221 
	C409.571503,147.152802 417.897736,160.932556 426.400970,174.602371 
	C427.078430,175.691422 428.662598,176.826736 429.867401,176.874130 
	C435.791412,177.107254 441.729614,176.980026 447.697327,176.980026 
	C447.697327,145.390625 447.697327,114.346626 447.697327,83.183533 
	C441.623718,83.183533 435.832916,83.183533 429.217621,83.073853 
	C428.864594,85.059433 428.511566,87.045021 428.019928,89.954994 
M542.973572,165.767120 
	C543.028198,166.854721 543.082886,167.942337 543.020386,169.868271 
	C543.336121,171.948639 543.651855,174.028992 544.087097,176.645218 
	C544.406921,176.705612 544.726685,176.765991 545.970337,176.942230 
	C550.098877,176.954819 554.254883,176.673721 558.348816,177.056534 
	C563.148254,177.505325 564.445129,175.282135 564.273987,170.658905 
	C564.378235,170.511246 564.482483,170.363571 565.131775,170.650955 
	C572.908997,178.233887 582.151917,179.291946 592.076904,176.359009 
	C601.118164,173.687210 606.758545,167.341843 609.923462,158.635284 
	C613.156616,149.741043 613.618713,140.751602 612.063599,131.356033 
	C610.272461,120.534508 605.533447,111.692200 595.474121,107.398628 
	C584.474304,102.703590 573.589661,103.704826 564.264221,112.351189 
	C564.149658,112.210800 564.035034,112.070404 563.982849,111.080589 
	C563.653931,109.189568 563.061646,107.301453 563.040833,105.407043 
	C562.941040,96.334030 562.996155,87.259331 562.996155,77.506966 
	C556.219727,78.031761 550.097229,78.505920 543.206177,79.309021 
	C543.188904,81.549416 543.171631,83.789810 543.029724,86.497437 
	C543.029724,86.497437 543.142029,86.967773 542.976929,87.869621 
	C543.030823,90.923676 543.084656,93.977737 543.008728,97.953163 
	C543.049683,102.955406 543.090698,107.957657 542.968872,113.718582 
	C543.022339,114.488792 543.075806,115.259010 543.008911,116.670143 
	C543.053284,117.100746 543.097656,117.531342 542.976624,118.891167 
	C543.030273,133.603561 543.083923,148.315948 543.013794,163.669556 
	C543.055054,164.100967 543.096252,164.532379 542.973572,165.767120 
M527.755310,163.755035 
	C531.225708,159.716660 527.464600,158.726013 524.338135,156.901291 
	C521.614319,155.057175 518.890564,153.213058 516.136169,151.348190 
	C511.549194,159.065720 504.010590,162.482361 496.135468,160.993469 
	C488.953461,159.635620 486.385468,156.327255 484.577026,146.002182 
	C497.740173,146.002182 510.881958,145.918518 524.021545,146.051239 
	C528.167419,146.093094 530.596497,145.201111 529.994202,140.297958 
	C529.591553,137.020355 530.500488,133.527206 529.806030,130.352875 
	C528.800720,125.758392 527.467346,121.038841 525.215027,116.956841 
	C521.080261,109.462990 513.536316,106.481918 505.608734,105.387512 
	C495.981476,104.058464 486.724915,105.249153 478.268585,111.121315 
	C471.500366,115.821220 467.924347,122.147247 465.813843,129.746338 
	C461.740936,144.411316 463.942841,157.793152 474.646271,168.928680 
	C479.790222,174.280258 486.753998,176.144821 494.199707,177.166718 
	C506.995483,178.922897 517.934570,176.707581 526.523865,165.898514 
	C526.605896,165.602310 526.687927,165.306107 526.939880,164.526352 
	C526.982849,164.361008 527.025818,164.195663 527.755310,163.755035 
M137.219742,64.184639 
	C136.198868,63.729053 135.048050,63.446579 134.176346,62.792259 
	C117.578468,50.333488 99.707359,39.987583 79.927444,33.787167 
	C65.371811,29.224411 50.292637,26.187931 35.295593,23.240452 
	C28.244457,21.854641 20.837532,22.279116 13.103237,21.856554 
	C13.103237,29.310118 13.157239,35.998028 13.094093,42.684826 
	C12.784737,75.444252 12.405074,108.203094 12.164155,140.962982 
	C12.134022,145.060333 13.038662,149.160950 13.065681,153.262985 
	C13.177621,170.257874 13.121350,187.253876 13.121763,204.249481 
	C13.122005,214.243347 19.820007,220.919220 29.845032,220.917435 
	C58.504200,220.912384 87.163399,220.935516 115.822525,220.901962 
	C147.812805,220.864502 179.803024,220.776947 212.736572,220.934921 
	C223.057510,220.938141 233.378448,220.955276 243.699371,220.940460 
	C253.189621,220.926849 259.916901,214.168076 259.919250,204.646820 
	C259.933746,145.714462 259.943268,86.782104 259.939636,27.849751 
	C259.939545,26.078129 259.776611,24.306515 259.615967,21.035137 
	C246.481049,22.547781 233.798660,23.314438 221.391586,25.585272 
	C197.452240,29.966837 175.046661,38.749050 154.511841,51.918697 
	C148.749710,55.614140 143.473938,60.067921 137.219742,64.184639 
M842.952148,136.500061 
	C842.952148,129.443222 842.952148,122.386383 842.952148,113.893135 
	C845.125061,117.587799 846.502502,120.035500 847.978394,122.422310 
	C858.012329,138.650314 868.006531,154.903595 878.183777,171.041336 
	C879.618347,173.316071 881.791260,176.405563 883.949280,176.696899 
	C889.782227,177.484344 895.791321,176.966522 901.714661,176.966522 
	C901.714661,145.418884 901.714661,114.352013 901.714661,83.223877 
	C895.000488,83.223877 888.566772,83.223877 882.261597,83.223877 
	C882.261597,102.492561 882.261597,121.529671 882.261597,141.945953 
	C875.610046,131.499176 869.799622,122.454346 864.072937,113.356842 
	C858.104248,103.875038 852.248291,94.322044 846.238953,84.866318 
	C845.687683,83.998940 844.392883,83.105766 843.423157,83.082985 
	C836.799438,82.927368 830.170227,83.001434 823.398193,83.001434 
	C823.398193,114.411064 823.398193,145.468338 823.398193,176.991165 
	C828.491089,176.991165 833.452576,176.819672 838.395386,177.049606 
	C841.871521,177.211304 843.054504,176.034393 842.999023,172.488708 
	C842.816650,160.828400 842.941895,149.163284 842.952148,136.500061 
M926.438782,166.894608 
	C932.375488,173.124268 939.667725,175.896683 948.200623,177.202728 
	C962.920654,179.455780 973.662170,174.614227 981.485901,164.815933 
	C982.527710,163.511169 982.986206,159.911957 982.197998,159.286346 
	C978.476440,156.332718 974.227173,154.043915 969.965271,151.393173 
	C966.057251,160.063980 958.978760,161.746201 951.287476,160.869598 
	C942.744202,159.895874 940.541199,156.879639 938.416931,145.998169 
	C952.097595,145.998169 965.751404,145.909698 979.402588,146.060196 
	C982.827332,146.097946 984.257202,145.140732 984.011475,141.530746 
	C983.729248,137.385376 984.186951,133.184875 983.830078,129.050919 
	C983.575684,126.104408 982.913025,123.048576 981.722412,120.355476 
	C978.584473,113.257492 972.651733,109.407372 965.484863,106.870224 
	C954.679443,103.044952 944.035583,104.264015 934.462646,109.436066 
	C922.007202,116.165443 918.288879,128.717743 918.328186,141.774948 
	C918.353882,150.324371 919.738953,159.292892 926.438782,166.894608 
M745.191956,117.375946 
	C746.841248,120.440781 748.726990,123.405197 750.081604,126.595169 
	C751.884338,130.840393 753.497742,130.357620 756.913147,127.809227 
	C763.432190,122.945023 770.625916,119.284904 779.326965,121.968269 
	C782.792969,123.037170 784.787781,127.761841 782.288696,130.067139 
	C780.724731,131.509872 778.425964,132.400497 776.304382,132.947525 
	C770.413879,134.466339 764.324402,135.289963 758.528198,137.082458 
	C743.309082,141.788971 740.680359,151.309799 744.317810,164.170303 
	C747.076233,173.923080 753.653198,177.130142 765.551086,177.861160 
	C773.660461,178.359436 780.484192,174.812454 785.126831,167.627670 
	C790.599121,177.568771 801.362793,179.987839 811.541077,173.908951 
	C810.943176,169.266510 810.343628,164.610779 809.731812,159.860382 
	C803.224182,161.674973 801.887939,160.624847 801.886536,154.346817 
	C801.884338,144.680801 801.487854,134.991608 802.029114,125.355545 
	C802.531433,116.414368 796.061707,109.276306 789.194336,107.202576 
	C773.056885,102.329590 758.155151,104.548958 745.191956,117.375946 
M626.418762,158.859543 
	C626.644226,159.096466 627.042725,159.315002 627.070190,159.572983 
	C627.969910,168.045334 632.047241,173.694626 640.576233,176.169327 
	C649.861084,178.863327 658.446411,179.072647 665.826172,171.682312 
	C667.036621,170.470108 668.317566,169.328293 669.997192,167.748199 
	C669.997192,170.367508 669.689209,172.263779 670.106201,173.984314 
	C670.380859,175.117447 671.659119,176.812531 672.557495,176.857254 
	C677.964722,177.126312 683.392029,176.990906 689.297241,176.990906 
	C689.297241,153.143311 689.297241,129.986511 689.297241,106.413185 
	C682.946106,106.413185 676.627014,106.413185 670.148621,106.413185 
	C670.148621,118.293510 670.218994,129.936218 670.098694,141.576950 
	C670.068970,144.451401 669.659119,147.374893 669.009460,150.179810 
	C667.221863,157.897369 661.276978,162.159210 653.125061,160.893600 
	C646.886169,159.925003 645.468689,157.802475 645.103638,148.051224 
	C644.655334,136.074493 644.982422,124.068153 645.010986,112.074692 
	C645.015564,110.155380 645.211609,108.236534 645.319458,106.310730 
	C639.189453,106.310730 632.792542,106.310730 626.090332,106.310730 
	C626.090332,123.751083 626.090332,140.879501 626.418762,158.859543 
M726.941711,91.507957 
	C726.941711,87.074303 726.941711,82.640648 726.941711,78.320885 
	C720.024353,78.320885 713.626892,78.320885 707.078125,78.320885 
	C707.078125,103.615677 707.034363,128.581177 707.127686,153.546173 
	C707.140930,157.083038 707.511536,160.683365 708.247803,164.141251 
	C711.078613,177.436905 727.762878,181.341705 737.813354,174.917542 
	C737.130737,170.292145 736.456787,165.725113 735.793823,161.233124 
	C726.976501,160.716934 726.968384,160.716934 726.963135,151.963318 
	C726.951294,132.143799 726.948364,112.324272 726.941711,91.507957 
z"/>
<path fill="#060617" opacity="1.000000" stroke="none" 
	d="
M1.000000,183.468414 
	C4.778757,189.388367 3.022669,195.938705 1.285013,202.740082 
	C1.000000,196.645599 1.000000,190.291214 1.000000,183.468414 
z"/>
<path fill="#4B6CF6" opacity="1.000000" stroke="none" 
	d="
M211.793274,220.711197 
	C179.803024,220.776947 147.812805,220.864502 115.822525,220.901962 
	C87.163399,220.935516 58.504200,220.912384 29.845032,220.917435 
	C19.820007,220.919220 13.122005,214.243347 13.121763,204.249481 
	C13.121350,187.253876 13.177621,170.257874 13.065681,153.262985 
	C13.038662,149.160950 12.134022,145.060333 12.164155,140.962982 
	C12.405074,108.203094 12.784737,75.444252 13.094093,42.684826 
	C13.157239,35.998028 13.103237,29.310118 13.103237,21.856554 
	C20.837532,22.279116 28.244457,21.854641 35.295593,23.240452 
	C50.292637,26.187931 65.371811,29.224411 79.927444,33.787167 
	C99.707359,39.987583 117.578468,50.333488 134.176346,62.792259 
	C135.048050,63.446579 136.198868,63.729053 137.587006,64.519165 
	C143.264664,70.089088 148.676666,75.225967 153.867096,80.577728 
	C171.997116,99.271225 186.738434,120.250023 196.687790,144.446777 
	C206.735245,168.882126 212.096024,194.232422 211.793274,220.711197 
z"/>
<path fill="#25367C" opacity="1.000000" stroke="none" 
	d="
M212.264923,220.823059 
	C212.096024,194.232422 206.735245,168.882126 196.687790,144.446777 
	C186.738434,120.250023 171.997116,99.271225 153.867096,80.577728 
	C148.676666,75.225967 143.264664,70.089088 137.964661,64.513763 
	C143.473938,60.067921 148.749710,55.614140 154.511841,51.918697 
	C175.046661,38.749050 197.452240,29.966837 221.391586,25.585272 
	C233.798660,23.314438 246.481049,22.547781 259.615967,21.035137 
	C259.776611,24.306515 259.939545,26.078129 259.939636,27.849751 
	C259.943268,86.782104 259.933746,145.714462 259.919250,204.646820 
	C259.916901,214.168076 253.189621,220.926849 243.699371,220.940460 
	C233.378448,220.955276 223.057510,220.938141 212.264923,220.823059 
z"/>
<path fill="#F9FAF9" opacity="1.000000" stroke="none" 
	d="
M842.950562,137.000031 
	C842.941895,149.163284 842.816650,160.828400 842.999023,172.488708 
	C843.054504,176.034393 841.871521,177.211304 838.395386,177.049606 
	C833.452576,176.819672 828.491089,176.991165 823.398193,176.991165 
	C823.398193,145.468338 823.398193,114.411064 823.398193,83.001434 
	C830.170227,83.001434 836.799438,82.927368 843.423157,83.082985 
	C844.392883,83.105766 845.687683,83.998940 846.238953,84.866318 
	C852.248291,94.322044 858.104248,103.875038 864.072937,113.356842 
	C869.799622,122.454346 875.610046,131.499176 882.261597,141.945953 
	C882.261597,121.529671 882.261597,102.492561 882.261597,83.223877 
	C888.566772,83.223877 895.000488,83.223877 901.714661,83.223877 
	C901.714661,114.352013 901.714661,145.418884 901.714661,176.966522 
	C895.791321,176.966522 889.782227,177.484344 883.949280,176.696899 
	C881.791260,176.405563 879.618347,173.316071 878.183777,171.041336 
	C868.006531,154.903595 858.012329,138.650314 847.978394,122.422310 
	C846.502502,120.035500 845.125061,117.587799 842.952148,113.893135 
	C842.952148,122.386383 842.952148,129.443222 842.950562,137.000031 
z"/>
<path fill="#F9FAFA" opacity="1.000000" stroke="none" 
	d="
M386.960266,176.842957 
	C381.171509,176.842957 375.382721,176.842957 369.388794,176.842957 
	C369.388794,145.639008 369.388794,114.611877 369.388794,83.288666 
	C376.806427,83.288666 384.216583,83.288666 391.512329,83.288666 
	C403.615173,102.718758 415.733673,122.174019 428.317505,141.426086 
	C429.191956,139.896332 429.950775,138.571533 429.957367,137.242996 
	C430.046600,119.223480 430.031433,101.203438 430.042084,83.183533 
	C435.832916,83.183533 441.623718,83.183533 447.697327,83.183533 
	C447.697327,114.346626 447.697327,145.390625 447.697327,176.980026 
	C441.729614,176.980026 435.791412,177.107254 429.867401,176.874130 
	C428.662598,176.826736 427.078430,175.691422 426.400970,174.602371 
	C417.897736,160.932556 409.571503,147.152802 401.107666,133.458221 
	C397.107147,126.985321 392.909210,120.634422 388.134705,114.393890 
	C387.311188,116.695885 387.022308,118.831894 387.016846,120.968620 
	C386.969208,139.593323 386.972290,158.218155 386.960266,176.842957 
z"/>
<path fill="#FDFDFC" opacity="1.000000" stroke="none" 
	d="
M563.922852,171.072189 
	C564.445129,175.282135 563.148254,177.505325 558.348816,177.056534 
	C554.254883,176.673721 550.098877,176.954819 545.512695,176.426727 
	C545.039062,145.464600 545.041138,115.017952 544.963013,84.571503 
	C544.958252,82.706863 544.318848,80.843842 543.974731,78.980072 
	C550.097229,78.505920 556.219727,78.031761 562.996155,77.506966 
	C562.996155,87.259331 562.941040,96.334030 563.040833,105.407043 
	C563.061646,107.301453 563.653931,109.189568 563.662231,111.606789 
	C563.304871,112.692177 563.268127,113.251373 563.231323,113.810577 
	C563.676208,113.474869 564.121033,113.139168 564.565857,112.803467 
	C573.589661,103.704826 584.474304,102.703590 595.474121,107.398628 
	C605.533447,111.692200 610.272461,120.534508 612.063599,131.356033 
	C613.618713,140.751602 613.156616,149.741043 609.923462,158.635284 
	C606.758545,167.341843 601.118164,173.687210 592.076904,176.359009 
	C582.151917,179.291946 572.908997,178.233887 564.667114,170.207794 
	C563.864807,169.630905 563.527161,169.497192 563.189575,169.363464 
	C563.433960,169.933044 563.678406,170.502625 563.922852,171.072189 
M581.010437,160.990692 
	C586.515747,159.574036 590.270264,156.518326 591.854431,150.737732 
	C593.856445,143.432739 593.347534,136.349869 590.808533,129.380951 
	C588.839294,123.975632 584.291016,121.798927 576.336426,121.993912 
	C570.550781,122.135719 565.881226,125.528328 564.093567,131.955078 
	C563.064392,135.654877 563.094910,139.702454 563.009277,143.601425 
	C562.783813,153.865295 568.388062,162.015228 581.010437,160.990692 
z"/>
<path fill="#FBFCFB" opacity="1.000000" stroke="none" 
	d="
M926.275146,166.561829 
	C919.738953,159.292892 918.353882,150.324371 918.328186,141.774948 
	C918.288879,128.717743 922.007202,116.165443 934.462646,109.436066 
	C944.035583,104.264015 954.679443,103.044952 965.484863,106.870224 
	C972.651733,109.407372 978.584473,113.257492 981.722412,120.355476 
	C982.913025,123.048576 983.575684,126.104408 983.830078,129.050919 
	C984.186951,133.184875 983.729248,137.385376 984.011475,141.530746 
	C984.257202,145.140732 982.827332,146.097946 979.402588,146.060196 
	C965.751404,145.909698 952.097595,145.998169 938.416931,145.998169 
	C940.541199,156.879639 942.744202,159.895874 951.287476,160.869598 
	C958.978760,161.746201 966.057251,160.063980 969.965271,151.393173 
	C974.227173,154.043915 978.476440,156.332718 982.197998,159.286346 
	C982.986206,159.911957 982.527710,163.511169 981.485901,164.815933 
	C973.662170,174.614227 962.920654,179.455780 948.200623,177.202728 
	C939.667725,175.896683 932.375488,173.124268 926.275146,166.561829 
M939.979614,132.989609 
	C948.699280,132.989609 957.418884,132.989609 966.271301,132.989609 
	C964.036987,123.895760 959.200134,119.397850 952.792114,119.998634 
	C944.589478,120.767670 939.208557,125.758026 939.979614,132.989609 
z"/>
<path fill="#FBFCFB" opacity="1.000000" stroke="none" 
	d="
M526.003052,165.809189 
	C517.934570,176.707581 506.995483,178.922897 494.199707,177.166718 
	C486.753998,176.144821 479.790222,174.280258 474.646271,168.928680 
	C463.942841,157.793152 461.740936,144.411316 465.813843,129.746338 
	C467.924347,122.147247 471.500366,115.821220 478.268585,111.121315 
	C486.724915,105.249153 495.981476,104.058464 505.608734,105.387512 
	C513.536316,106.481918 521.080261,109.462990 525.215027,116.956841 
	C527.467346,121.038841 528.800720,125.758392 529.806030,130.352875 
	C530.500488,133.527206 529.591553,137.020355 529.994202,140.297958 
	C530.596497,145.201111 528.167419,146.093094 524.021545,146.051239 
	C510.881958,145.918518 497.740173,146.002182 484.577026,146.002182 
	C486.385468,156.327255 488.953461,159.635620 496.135468,160.993469 
	C504.010590,162.482361 511.549194,159.065720 516.136169,151.348190 
	C518.890564,153.213058 521.614319,155.057175 524.666626,157.425873 
	C525.686279,159.977066 526.377502,162.003693 527.068726,164.030319 
	C527.025818,164.195663 526.982849,164.361008 526.687012,164.858307 
	C526.229797,165.354355 526.086060,165.560654 526.003052,165.809189 
M486.922821,126.475494 
	C486.018646,128.556412 485.114471,130.637329 484.182648,132.781860 
	C493.833405,132.781860 502.929230,132.781860 512.256409,132.781860 
	C511.286438,126.252876 508.281586,121.697990 501.819885,120.363403 
	C495.922424,119.145355 491.083252,121.537140 486.922821,126.475494 
z"/>
<path fill="#FAFBFA" opacity="1.000000" stroke="none" 
	d="
M745.453491,117.160995 
	C758.155151,104.548958 773.056885,102.329590 789.194336,107.202576 
	C796.061707,109.276306 802.531433,116.414368 802.029114,125.355545 
	C801.487854,134.991608 801.884338,144.680801 801.886536,154.346817 
	C801.887939,160.624847 803.224182,161.674973 809.731812,159.860382 
	C810.343628,164.610779 810.943176,169.266510 811.541077,173.908951 
	C801.362793,179.987839 790.599121,177.568771 785.126831,167.627670 
	C780.484192,174.812454 773.660461,178.359436 765.551086,177.861160 
	C753.653198,177.130142 747.076233,173.923080 744.317810,164.170303 
	C740.680359,151.309799 743.309082,141.788971 758.528198,137.082458 
	C764.324402,135.289963 770.413879,134.466339 776.304382,132.947525 
	C778.425964,132.400497 780.724731,131.509872 782.288696,130.067139 
	C784.787781,127.761841 782.792969,123.037170 779.326965,121.968269 
	C770.625916,119.284904 763.432190,122.945023 756.913147,127.809227 
	C753.497742,130.357620 751.884338,130.840393 750.081604,126.595169 
	C748.726990,123.405197 746.841248,120.440781 745.453491,117.160995 
M767.987122,147.022095 
	C763.729675,148.690903 761.111633,151.565384 762.079895,156.360687 
	C763.106079,161.442780 766.127502,163.148315 772.247009,163.042572 
	C780.971863,162.891800 785.116577,153.758148 783.660583,143.575500 
	C778.728577,144.714630 773.771484,145.859558 767.987122,147.022095 
z"/>
<path fill="#FAFBFA" opacity="1.000000" stroke="none" 
	d="
M626.254517,158.433746 
	C626.090332,140.879501 626.090332,123.751083 626.090332,106.310730 
	C632.792542,106.310730 639.189453,106.310730 645.319458,106.310730 
	C645.211609,108.236534 645.015564,110.155380 645.010986,112.074692 
	C644.982422,124.068153 644.655334,136.074493 645.103638,148.051224 
	C645.468689,157.802475 646.886169,159.925003 653.125061,160.893600 
	C661.276978,162.159210 667.221863,157.897369 669.009460,150.179810 
	C669.659119,147.374893 670.068970,144.451401 670.098694,141.576950 
	C670.218994,129.936218 670.148621,118.293510 670.148621,106.413185 
	C676.627014,106.413185 682.946106,106.413185 689.297241,106.413185 
	C689.297241,129.986511 689.297241,153.143311 689.297241,176.990906 
	C683.392029,176.990906 677.964722,177.126312 672.557495,176.857254 
	C671.659119,176.812531 670.380859,175.117447 670.106201,173.984314 
	C669.689209,172.263779 669.997192,170.367508 669.997192,167.748199 
	C668.317566,169.328293 667.036621,170.470108 665.826172,171.682312 
	C658.446411,179.072647 649.861084,178.863327 640.576233,176.169327 
	C632.047241,173.694626 627.969910,168.045334 627.070190,159.572983 
	C627.042725,159.315002 626.644226,159.096466 626.254517,158.433746 
z"/>
<path fill="#FCFDFB" opacity="1.000000" stroke="none" 
	d="
M1001.022278,122.072128 
	C998.416321,121.709663 995.804382,121.019051 993.205994,121.066994 
	C989.885864,121.128250 988.955566,119.841736 988.928345,116.637474 
	C988.840271,106.246246 988.725098,106.247223 1000.488281,105.916725 
	C1000.328369,105.019691 1000.000305,104.125229 1000.037964,103.246483 
	C1000.527588,91.843407 1002.039124,90.512527 1014.980896,90.012238 
	C1016.462280,89.954979 1017.947754,90.004486 1019.810242,90.004486 
	C1019.810242,95.252815 1019.810242,100.341270 1019.810242,105.840790 
	C1026.585205,105.840790 1032.993896,105.840790 1039.678223,105.840790 
	C1039.678223,110.979240 1039.678223,115.710396 1039.678223,120.875519 
	C1033.271729,120.875519 1026.858398,120.875519 1019.980896,120.875519 
	C1019.980896,132.568420 1019.926147,143.839691 1020.006042,155.110031 
	C1020.041382,160.093948 1026.293945,162.784393 1033.062500,159.475784 
	C1034.425049,158.809769 1035.821777,158.213837 1037.425415,157.484314 
	C1038.784058,161.572067 1039.615845,165.182953 1041.174194,168.447113 
	C1042.692139,171.627090 1041.859009,173.184006 1038.913818,174.586121 
	C1027.691406,179.928772 1013.279236,179.116791 1006.181885,170.355286 
	C1003.804504,167.420410 1002.798401,163.374741 1001.516846,159.120300 
	C1001.917847,147.939667 1002.006897,137.475418 1001.968933,127.011635 
	C1001.963928,125.626549 1001.312134,124.243797 1000.976074,122.663055 
	C1000.992310,122.466141 1001.022278,122.072128 1001.022278,122.072128 
z"/>
<path fill="#F9FAF9" opacity="1.000000" stroke="none" 
	d="
M726.941772,92.006348 
	C726.948364,112.324272 726.951294,132.143799 726.963135,151.963318 
	C726.968384,160.716934 726.976501,160.716934 735.793823,161.233124 
	C736.456787,165.725113 737.130737,170.292145 737.813354,174.917542 
	C727.762878,181.341705 711.078613,177.436905 708.247803,164.141251 
	C707.511536,160.683365 707.140930,157.083038 707.127686,153.546173 
	C707.034363,128.581177 707.078125,103.615677 707.078125,78.320885 
	C713.626892,78.320885 720.024353,78.320885 726.941711,78.320885 
	C726.941711,82.640648 726.941711,87.074303 726.941772,92.006348 
z"/>
<path fill="#B4CFE0" opacity="1.000000" stroke="none" 
	d="
M543.590454,79.144547 
	C544.318848,80.843842 544.958252,82.706863 544.963013,84.571503 
	C545.041138,115.017952 545.039062,145.464600 545.050781,176.368805 
	C544.726685,176.765991 544.406921,176.705612 544.027100,175.956940 
	C543.690491,173.189087 543.414001,171.109512 543.137573,169.029938 
	C543.082886,167.942337 543.028198,166.854721 543.262451,165.222473 
	C543.413452,164.127991 543.275452,163.578171 543.137573,163.028351 
	C543.083923,148.315948 543.030273,133.603561 543.264893,118.281387 
	C543.411804,117.124153 543.270508,116.576691 543.129272,116.029228 
	C543.075806,115.259010 543.022339,114.488792 543.323486,113.032608 
	C543.498291,107.241684 543.318420,102.136734 543.138550,97.031792 
	C543.084656,93.977737 543.030823,90.923676 543.208923,87.335800 
	C543.495728,86.703072 543.621582,86.555855 543.592957,86.513672 
	C543.471802,86.335480 543.304688,86.188538 543.154358,86.030197 
	C543.171631,83.789810 543.188904,81.549416 543.590454,79.144547 
z"/>
<path fill="#F3D9BF" opacity="1.000000" stroke="none" 
	d="
M387.373718,176.801392 
	C386.972290,158.218155 386.969208,139.593323 387.016846,120.968620 
	C387.022308,118.831894 387.311188,116.695885 387.797455,114.299591 
	C388.419159,133.951508 388.730103,153.863174 388.951233,173.775848 
	C388.962250,174.766098 388.193054,175.764984 387.373718,176.801392 
z"/>
<path fill="#C5D9E7" opacity="1.000000" stroke="none" 
	d="
M429.629852,83.128693 
	C430.031433,101.203438 430.046600,119.223480 429.957367,137.242996 
	C429.950775,138.571533 429.191956,139.896332 428.468140,141.118362 
	C428.105957,132.637894 428.058502,124.261932 428.351807,115.107605 
	C428.514557,105.896355 428.336517,97.463478 428.158508,89.030609 
	C428.511566,87.045021 428.864594,85.059433 429.629852,83.128693 
z"/>
<path fill="#AFBFCB" opacity="1.000000" stroke="none" 
	d="
M1000.959839,122.859955 
	C1001.312134,124.243797 1001.963928,125.626549 1001.968933,127.011635 
	C1002.006897,137.475418 1001.917847,147.939667 1001.607300,158.732635 
	C1001.246216,158.620026 1001.146118,158.178574 1001.032349,156.924835 
	C1000.999084,145.028366 1000.979492,133.944168 1000.959839,122.859955 
z"/>
<path fill="#FFFFFF" opacity="1.000000" stroke="none" 
	d="
M1000.976074,122.663048 
	C1000.979492,133.944168 1000.999084,145.028366 1000.999146,156.584259 
	C1000.654114,156.400757 1000.045410,155.745575 1000.045471,155.090424 
	C1000.046021,144.173950 1000.122803,133.257477 1000.602417,122.206573 
	C1001.022278,122.072128 1000.992310,122.466141 1000.976074,122.663048 
z"/>
<path fill="#D8EAFF" opacity="1.000000" stroke="none" 
	d="
M428.089233,89.492798 
	C428.336517,97.463478 428.514557,105.896355 428.424683,114.640976 
	C428.111176,106.620148 428.065552,98.287575 428.089233,89.492798 
z"/>
<path fill="#FAF6EB" opacity="1.000000" stroke="none" 
	d="
M527.411987,163.892670 
	C526.377502,162.003693 525.686279,159.977066 524.992432,157.571838 
	C527.464600,158.726013 531.225708,159.716660 527.411987,163.892670 
z"/>
<path fill="#C8E3F5" opacity="1.000000" stroke="none" 
	d="
M543.073608,97.492477 
	C543.318420,102.136734 543.498291,107.241684 543.404907,112.653259 
	C543.090698,107.957657 543.049683,102.955406 543.073608,97.492477 
z"/>
<path fill="#C8E3F5" opacity="1.000000" stroke="none" 
	d="
M543.078979,169.449097 
	C543.414001,171.109512 543.690491,173.189087 543.967285,175.689011 
	C543.651855,174.028992 543.336121,171.948639 543.078979,169.449097 
z"/>
<path fill="#C8E3F5" opacity="1.000000" stroke="none" 
	d="
M543.069092,116.349686 
	C543.270508,116.576691 543.411804,117.124153 543.347534,117.816772 
	C543.097656,117.531342 543.053284,117.100746 543.069092,116.349686 
z"/>
<path fill="#C8E3F5" opacity="1.000000" stroke="none" 
	d="
M543.075684,163.348953 
	C543.275452,163.578171 543.413452,164.127991 543.344482,164.820801 
	C543.096252,164.532379 543.055054,164.100967 543.075684,163.348953 
z"/>
<path fill="#FAF6EB" opacity="1.000000" stroke="none" 
	d="
M526.263428,165.853851 
	C526.086060,165.560654 526.229797,165.354355 526.602051,165.100098 
	C526.687927,165.306107 526.605896,165.602310 526.263428,165.853851 
z"/>
<path fill="#C8E3F5" opacity="1.000000" stroke="none" 
	d="
M543.092041,86.263817 
	C543.304688,86.188538 543.471802,86.335480 543.592957,86.513672 
	C543.621582,86.555855 543.495728,86.703072 543.291504,86.884880 
	C543.142029,86.967773 543.029724,86.497437 543.092041,86.263817 
z"/>
<path fill="#000000" opacity="1.000000" stroke="none" 
	d="
M580.581909,160.998535 
	C568.388062,162.015228 562.783813,153.865295 563.009277,143.601425 
	C563.094910,139.702454 563.064392,135.654877 564.093567,131.955078 
	C565.881226,125.528328 570.550781,122.135719 576.336426,121.993912 
	C584.291016,121.798927 588.839294,123.975632 590.808533,129.380951 
	C593.347534,136.349869 593.856445,143.432739 591.854431,150.737732 
	C590.270264,156.518326 586.515747,159.574036 580.581909,160.998535 
z"/>
<path fill="#000000" opacity="1.000000" stroke="none" 
	d="
M564.415039,112.577332 
	C564.121033,113.139168 563.676208,113.474869 563.231323,113.810577 
	C563.268127,113.251373 563.304871,112.692177 563.630981,112.031502 
	C564.035034,112.070404 564.149658,112.210800 564.415039,112.577332 
z"/>
<path fill="#000000" opacity="1.000000" stroke="none" 
	d="
M564.098389,170.865540 
	C563.678406,170.502625 563.433960,169.933044 563.189575,169.363464 
	C563.527161,169.497192 563.864807,169.630905 564.394592,169.990265 
	C564.482483,170.363571 564.378235,170.511246 564.098389,170.865540 
z"/>
<path fill="#000000" opacity="1.000000" stroke="none" 
	d="
M939.567383,132.817734 
	C939.208557,125.758026 944.589478,120.767670 952.792114,119.998634 
	C959.200134,119.397850 964.036987,123.895760 966.271301,132.989609 
	C957.418884,132.989609 948.699280,132.989609 939.567383,132.817734 
z"/>
<path fill="#000000" opacity="1.000000" stroke="none" 
	d="
M486.963501,126.091446 
	C491.083252,121.537140 495.922424,119.145355 501.819885,120.363403 
	C508.281586,121.697990 511.286438,126.252876 512.256409,132.781860 
	C502.929230,132.781860 493.833405,132.781860 484.182648,132.781860 
	C485.114471,130.637329 486.018646,128.556412 486.963501,126.091446 
z"/>
<path fill="#000000" opacity="1.000000" stroke="none" 
	d="
M768.400757,147.013290 
	C773.771484,145.859558 778.728577,144.714630 783.660583,143.575500 
	C785.116577,153.758148 780.971863,162.891800 772.247009,163.042572 
	C766.127502,163.148315 763.106079,161.442780 762.079895,156.360687 
	C761.111633,151.565384 763.729675,148.690903 768.400757,147.013290 
z"/>
</svg>